<svg width="38" height="29" viewBox="0 0 38 29" fill="none" xmlns="http://www.w3.org/2000/svg">
<g clip-path="url(#clip0_263_68)">
<path d="M18.2544 7.08322L18.2715 8.23515C18.2724 8.29285 18.296 8.33363 18.3425 8.35751C18.8562 8.6251 19.2581 9.01007 19.5482 9.51243C19.578 9.56316 19.6135 9.56963 19.6547 9.53183C19.9659 9.25031 20.0926 8.86932 20.0347 8.38884" stroke="#805B00" stroke-width="2"/>
<path d="M20.0348 8.38884C20.0357 6.62513 20.0348 4.8634 20.0322 3.10366C20.0309 2.62617 20.0401 2.2024 19.668 1.95918C19.0973 1.58316 18.2413 1.88905 18.2453 2.72316C18.2523 4.15363 18.2553 5.60699 18.2545 7.08322" stroke="#806C00" stroke-width="2"/>
<path d="M20.0347 8.38884C20.0382 8.36895 20.0347 8.35452 20.0242 8.34557C20.0163 8.3396 20.008 8.33911 19.9992 8.34408L19.9572 8.36646C19.9388 8.37641 19.9212 8.37492 19.9046 8.36199L18.2544 7.08322" stroke="#FFC700" stroke-width="2"/>
<path d="M8.39551 17.9371C8.39551 19.9764 8.39551 22.0678 8.39551 24.2116C8.39419 25.1367 9.26202 25.6754 9.96285 25.2531C10.3354 25.0293 10.5208 24.6567 10.519 24.1355C10.5129 22.6463 10.5133 19.9654 10.5204 16.0928" stroke="#805B00" stroke-width="2"/>
<path d="M10.5204 16.0928C10.5151 13.4646 10.5156 10.8235 10.5217 8.1695C10.523 7.53534 10.0759 7.01309 9.53421 6.96832C8.92411 6.91908 8.39553 7.45625 8.39553 8.1501C8.3929 11.3602 8.3929 14.6225 8.39553 17.9371" stroke="#806C00" stroke-width="2"/>
<path d="M10.5204 16.0928L8.39551 17.9371" stroke="#FFC700" stroke-width="2"/>
<path d="M27.4402 16.0495C27.4402 18.8379 27.4424 21.5705 27.4468 24.2474C27.4481 25.0039 28.0753 25.5232 28.7012 25.3829C29.2727 25.2556 29.5602 24.8522 29.5637 24.1728C29.5751 21.9922 29.5812 19.8366 29.5821 17.7058" stroke="#805B00" stroke-width="2"/>
<path d="M29.5821 17.7058C29.583 14.4947 29.5799 11.309 29.5729 8.14861C29.5703 7.32494 28.8576 6.78628 28.1949 7.03248C27.3849 7.3339 27.4389 8.00685 27.4389 8.82007C27.4389 11.2781 27.4393 13.688 27.4402 16.0495" stroke="#806C00" stroke-width="2"/>
<path d="M29.5821 17.7058C28.901 17.091 28.187 16.539 27.4402 16.0495" stroke="#FFC700" stroke-width="2"/>
<path d="M4.82426 17.9923C4.80936 18.9383 4.80453 19.9366 4.80979 20.987C4.81242 21.6122 4.73748 22.1121 5.26606 22.518C5.95374 23.0462 6.87547 22.6314 6.8873 21.6555C6.90133 20.3355 6.90396 18.5618 6.89519 16.3345" stroke="#805B00" stroke-width="2"/>
<path d="M6.89526 16.3345C6.90315 14.4455 6.90885 12.5584 6.91235 10.6733C6.91235 10.2088 6.74361 9.86458 6.40612 9.64076C6.08705 9.42987 5.75877 9.42141 5.42128 9.61539C4.99877 9.85911 4.78926 10.2481 4.79277 10.7822C4.80942 13.119 4.81994 15.5223 4.82433 17.9923" stroke="#806C00" stroke-width="2"/>
<path d="M6.89515 16.3345C6.49981 16.5444 6.22544 16.7414 6.07204 16.9254C5.70212 17.3671 5.28618 17.7227 4.82422 17.9923" stroke="#FFC700" stroke-width="2"/>
<path d="M31.0587 18.7846C31.0526 19.7297 31.0451 20.6548 31.0364 21.56C31.032 21.9579 31.1678 22.2723 31.444 22.5031C32.0777 23.0313 33.0955 22.6627 33.1165 21.6928C33.127 21.1606 33.1283 20.6936 33.1204 20.2917" stroke="#805B00" stroke-width="2"/>
<path d="M33.1204 20.2917C33.1257 17.0189 33.1288 13.8123 33.1296 10.6718C33.1296 9.09015 31.0679 9.12298 31.0626 10.5942C31.0548 13.3438 31.0534 16.0739 31.0587 18.7846" stroke="#806C00" stroke-width="2"/>
<path d="M33.1204 20.2917L31.0587 18.7846" stroke="#FFC700" stroke-width="2"/>
<path d="M12.0429 16.4226C12.0131 16.6862 12.0232 16.9239 12.0732 17.1358C12.0855 17.1865 12.1148 17.2119 12.1613 17.2119L16.67 17.2089C16.6988 17.2091 16.7265 17.1969 16.7479 17.1748C16.7693 17.1528 16.7828 17.1224 16.7857 17.0896C16.9058 15.7277 17.0855 14.4947 17.3248 13.3905C17.3879 13.0991 17.4322 13.103 17.4576 13.4025C17.8047 17.4148 17.9546 21.5958 18.2926 25.6022C18.3539 26.3244 18.6853 26.7109 19.2866 26.7616C19.8086 26.8064 20.1886 26.3961 20.307 25.8559C20.5055 24.9502 20.5331 23.9818 20.6659 23.0611C20.8062 22.0932 20.9171 21.2322 20.9986 20.4782C21.2554 18.1107 21.5031 15.7312 21.7415 13.3398C21.7546 13.2125 21.7831 13.208 21.827 13.3264C21.8603 13.4159 21.8839 13.5099 21.898 13.6084C22.0154 14.4549 22.1044 15.3532 22.1649 16.3032C22.1815 16.5698 22.214 16.8468 22.2622 17.1343C22.271 17.186 22.2986 17.2119 22.345 17.2119L25.815 17.2074C25.8468 17.207 25.8773 17.1924 25.8997 17.1667C25.9221 17.141 25.9346 17.1063 25.9346 17.0702L25.936 16.4897" stroke="#805B00" stroke-width="2"/>
<path d="M25.936 16.4897L25.9373 15.4601C25.9377 15.4308 25.9276 15.4026 25.9094 15.3816C25.8911 15.3606 25.8662 15.3486 25.84 15.3482L23.4693 15.3393C23.4397 15.3388 23.4113 15.3262 23.3891 15.3038C23.3669 15.2813 23.3524 15.2505 23.3483 15.2169C23.1879 13.8322 22.992 12.4181 22.7606 10.9747C22.7071 10.6415 22.5406 10.364 22.2609 10.1421C21.9988 9.93421 21.7424 9.8805 21.4917 9.98097C20.9145 10.2122 20.6975 10.742 20.6344 11.4298C20.5327 12.534 20.382 13.9282 20.1821 15.6123C20.0638 16.616 19.9546 17.9028 19.8547 19.4725C19.8363 19.769 19.7916 20.1773 19.7206 20.6976" stroke="#806C00" stroke-width="2"/>
<path d="M19.7205 20.6976L19.5759 21.8987C19.5715 21.9296 19.5562 21.948 19.5299 21.9539C19.5159 21.9579 19.5036 21.9539 19.4931 21.942C19.4764 21.9241 19.4672 21.9027 19.4655 21.8778C19.4269 21.4023 19.3712 20.9587 19.2985 20.5469" stroke="#805B00" stroke-width="2"/>
<path d="M19.2985 20.5469C19.0925 17.5307 18.8519 14.5459 18.5766 11.5925C18.5652 11.4701 18.5573 11.3463 18.5529 11.2209C18.5337 10.7325 18.3439 10.351 17.9836 10.0765C17.3709 9.60793 16.3978 9.99738 16.2703 10.8658C16.0284 12.5092 15.846 13.9784 15.7233 15.2736C15.7189 15.3224 15.6948 15.3467 15.651 15.3467L12.1731 15.3408C12.1409 15.3408 12.11 15.3552 12.0871 15.3809C12.0642 15.4066 12.0512 15.4415 12.0509 15.478L12.043 16.4226" stroke="#806C00" stroke-width="2"/>
<path d="M19.2985 20.5469C19.2152 20.6642 19.0666 20.617 18.8527 20.4051C18.6568 20.2126 18.6253 19.9172 18.6055 19.6441C18.5564 18.9806 18.5144 18.2848 18.4793 17.5566C18.4258 16.4484 18.2356 14.4629 17.9086 11.5999C17.8771 11.3239 17.7509 11.0165 17.4695 10.9971C17.1066 10.9703 16.9023 11.1588 16.8567 11.5626C16.7551 12.4689 16.6161 13.4875 16.4399 14.6186C16.3558 15.1617 16.287 15.7133 16.2335 16.2733C16.2306 16.3034 16.2181 16.3311 16.1984 16.3513C16.1787 16.3714 16.1533 16.3824 16.127 16.3823L12.043 16.4226" stroke="#FFC700" stroke-width="2"/>
<path d="M25.936 16.4897C24.9358 16.3922 23.951 16.3708 22.9815 16.4255C22.9487 16.4275 22.9164 16.4155 22.8911 16.392C22.8658 16.3685 22.8493 16.3353 22.8447 16.2987C22.7606 15.6422 22.69 14.9961 22.633 14.3604C22.5423 13.3532 22.3254 12.4385 22.1965 11.4701C22.1465 11.1001 21.8796 10.9359 21.5903 11.1046C21.3471 11.2463 21.3234 11.6208 21.2919 11.8909C21.163 13.016 21.039 14.1331 20.9198 15.2423C20.7883 16.4718 20.5161 18.2594 20.4201 19.7456C20.3859 20.2609 20.1527 20.5782 19.7206 20.6976" stroke="#FFC700" stroke-width="2"/>
<path d="M3.3779 14.444C3.3779 14.1681 3.28134 13.9036 3.10947 13.7086C2.9376 13.5135 2.70449 13.4039 2.46143 13.4039H2.38254C2.13947 13.4039 1.90636 13.5135 1.73449 13.7086C1.56262 13.9036 1.46606 14.1681 1.46606 14.444V17.5596C1.46606 17.8354 1.56262 18.0999 1.73449 18.295C1.90636 18.49 2.13947 18.5996 2.38254 18.5996H2.46143C2.70449 18.5996 2.9376 18.49 3.10947 18.295C3.28134 18.0999 3.3779 17.8354 3.3779 17.5596V14.444Z" stroke="#805B00" stroke-width="2"/>
<path d="M34.5905 15.0751C34.5862 15.9495 34.5927 16.7926 34.6103 17.6043C34.6392 18.9756 36.484 18.9488 36.5063 17.57C36.5116 17.199 36.512 16.8414 36.5076 16.4972" stroke="#805B00" stroke-width="2"/>
<path d="M36.5076 16.4972C36.5102 15.9222 36.5102 15.3552 36.5076 14.7961C36.5049 14.4271 36.4769 14.1679 36.4234 14.0187C36.0802 13.0727 34.6628 13.2786 34.5918 14.3574C34.5804 14.5355 34.5799 14.7747 34.5905 15.0752" stroke="#806C00" stroke-width="2"/>
<path d="M36.5075 16.4972C36.4024 16.523 36.295 16.4633 36.1854 16.3181C36.082 16.1798 36.0031 16.0873 35.9487 16.0406C35.5218 15.6715 35.0691 15.3497 34.5905 15.0751" stroke="#FFC700" stroke-width="2"/>
<path d="M6.88202 24.6204C6.88318 24.6064 6.88169 24.5923 6.87764 24.579C6.87359 24.5658 6.86709 24.5537 6.85859 24.5436C6.85008 24.5335 6.83978 24.5257 6.82838 24.5207C6.81699 24.5156 6.80479 24.5135 6.79261 24.5145C5.89455 24.5742 5.04251 24.5548 4.33773 23.8923C3.82581 23.4108 3.51287 22.8492 3.39891 22.2076C3.29503 21.6227 3.33448 21.0497 3.32528 20.4678C3.3244 20.4071 3.29723 20.3782 3.24375 20.3812C3.01409 20.3932 2.78618 20.3996 2.56002 20.4006C1.17676 20.4021 0.0249305 19.4098 -5.21551e-05 17.761C-0.0175839 16.6509 -0.0224052 15.4547 -0.0145159 14.1724C-0.0127627 13.9983 0.0240539 13.771 0.0959339 13.4905C0.153789 13.2647 0.246268 13.0637 0.373373 12.8877C0.518887 12.6887 0.668783 12.5146 0.823062 12.3654C1.57386 11.6417 2.32465 11.6507 3.24507 11.7014C3.25593 11.702 3.26678 11.7001 3.27698 11.6958C3.28717 11.6915 3.29648 11.6849 3.30435 11.6764C3.31222 11.6679 3.31849 11.6576 3.32276 11.6463C3.32704 11.6349 3.32923 11.6227 3.32922 11.6104C3.33054 11.112 3.29503 10.6166 3.38971 10.1302C3.52382 9.44579 3.82493 8.8728 4.29303 8.41123C4.9886 7.72634 5.91033 7.74723 6.765 7.76812C6.81847 7.76911 6.8509 7.73977 6.8623 7.68008C7.0271 6.82856 7.3716 6.20286 7.8958 5.80296C8.6707 5.21307 9.50608 5.08474 10.402 5.41799C11.396 5.78655 12.0298 7.06084 12.0285 8.21725C12.0267 9.97898 12.0263 11.7303 12.0271 13.4711C12.0271 13.5008 12.0375 13.5292 12.056 13.5502C12.0745 13.5712 12.0996 13.583 12.1258 13.583L14.3992 13.5711C14.4103 13.571 14.4209 13.5666 14.4293 13.5587C14.4377 13.5508 14.4434 13.5398 14.4452 13.5278C14.5793 12.6902 14.7099 11.7526 14.837 10.7151C14.8879 10.3023 15.0382 9.85414 15.288 9.37068C15.587 8.79471 16.0757 8.40427 16.7541 8.19935C16.7696 8.19473 16.7833 8.18431 16.793 8.16973C16.8028 8.15516 16.8081 8.13724 16.808 8.11877C16.8151 6.4028 16.8129 4.5988 16.8015 2.70676C16.7988 2.32079 16.8378 1.98207 16.9185 1.69061C17.0408 1.24893 17.4274 0.605814 17.8336 0.367071C18.5148 -0.0313322 19.2853 -0.244709 20.0124 0.15071C20.2583 0.283511 20.5226 0.367071 20.733 0.577463C21.3233 1.16835 21.5285 1.87115 21.5206 2.83657C21.5048 4.61123 21.503 6.35257 21.5153 8.06058C21.5152 8.07103 21.5172 8.08139 21.5209 8.09096C21.5247 8.10054 21.5302 8.10912 21.5372 8.11615C21.5441 8.12319 21.5523 8.12852 21.5612 8.1318C21.5701 8.13508 21.5796 8.13623 21.5889 8.13518C21.7757 8.11529 21.9593 8.13717 22.1399 8.20084C23.1734 8.56492 23.8216 9.29906 24.0846 10.4032C24.1959 10.8698 24.2739 11.5527 24.3186 12.452C24.3357 12.8056 24.4317 13.1592 24.4698 13.5144C24.4721 13.5358 24.4811 13.5556 24.4952 13.5699C24.5092 13.5842 24.5274 13.5921 24.5461 13.592L25.8413 13.5905C25.8563 13.5905 25.8712 13.5871 25.885 13.5806C25.8989 13.5741 25.9115 13.5645 25.9221 13.5524C25.9328 13.5404 25.9412 13.5261 25.9469 13.5103C25.9527 13.4946 25.9557 13.4777 25.9557 13.4607C25.953 11.7139 25.9495 9.97749 25.9451 8.25157C25.9434 7.68356 26.0893 7.0877 26.383 6.46398C26.4974 6.22076 26.7932 5.87608 27.001 5.7388C28.6446 4.66445 30.7208 5.3956 31.0534 7.66665C31.0575 7.6956 31.0705 7.72191 31.0901 7.74081C31.1096 7.7597 31.1344 7.76993 31.1599 7.76961C32.0593 7.75767 32.9981 7.72634 33.7318 8.45003C34.2148 8.92553 34.5124 9.52636 34.6246 10.2525C34.6904 10.6778 34.6457 11.1717 34.6575 11.6134C34.6582 11.6384 34.6674 11.6622 34.6832 11.6795C34.6989 11.6968 34.7199 11.7063 34.7417 11.7059C35.2992 11.6954 35.9527 11.6059 36.4734 11.873C37.172 12.2301 37.6335 12.7852 37.8579 13.5382C37.9824 13.9531 38.0354 14.5256 38.017 15.2557C37.9995 15.9341 37.9991 16.5802 38.0157 17.194C38.0368 17.9535 37.9145 18.6101 37.5108 19.2621C36.8113 20.3917 35.8606 20.432 34.7364 20.3812C34.6829 20.3792 34.6562 20.4086 34.6562 20.4693C34.6562 21.3884 34.7456 22.2882 34.2723 23.0999C33.6972 24.0877 32.8662 24.5652 31.7793 24.5324C31.5662 24.5254 31.3462 24.5219 31.1192 24.5219C31.0692 24.5229 31.042 24.5518 31.0377 24.6085C30.9789 25.4789 30.6239 26.1613 29.9726 26.6557C28.7748 27.5659 27.0943 27.2287 26.3659 25.7947C26.0832 25.2412 25.9372 24.7293 25.9412 24.0698C25.9526 22.3558 25.9548 20.6896 25.9478 19.0711C25.9474 19.0409 25.9365 19.0121 25.9173 18.9908C25.8981 18.9696 25.8722 18.9577 25.8452 18.9577L22.5869 18.9637C22.5789 18.9636 22.571 18.9669 22.565 18.973C22.5589 18.979 22.555 18.9874 22.5541 18.9965C22.3647 20.3051 22.1964 21.6003 22.1044 22.9477C22.0325 24.0081 21.8887 25.1795 21.6731 26.4617C21.5881 26.9621 21.3799 27.3799 21.0485 27.7151C20.3665 28.4055 19.6092 28.6567 18.7764 28.4687C17.6719 28.2195 16.8659 27.0646 16.8501 25.8007C16.8212 23.5341 16.5582 21.1676 16.4372 19.0025C16.4369 18.9917 16.4327 18.9814 16.4256 18.9739C16.4185 18.9664 16.409 18.9622 16.3991 18.9622H12.1179C12.0662 18.9622 12.0403 18.991 12.0403 19.0487C12.0236 20.5707 12.0214 22.1619 12.0337 23.8221C12.0381 24.3663 11.9763 24.8174 11.8483 25.1755C10.8806 27.9046 7.97337 27.7614 6.96092 25.174C6.89167 24.9959 6.86537 24.8114 6.88202 24.6204ZM18.2544 7.08322L18.2715 8.23516C18.2724 8.29286 18.296 8.33364 18.3425 8.35752C18.8562 8.62511 19.2581 9.01008 19.5482 9.51244C19.5781 9.56317 19.6136 9.56963 19.6548 9.53183C19.9659 9.25032 20.0926 8.86932 20.0348 8.38885C20.0356 6.62513 20.0348 4.86341 20.0321 3.10367C20.0308 2.62618 20.04 2.20241 19.6679 1.95919C19.0972 1.58317 18.2413 1.88906 18.2452 2.72317C18.2522 4.15364 18.2553 5.60699 18.2544 7.08322ZM8.39545 17.9371C8.39545 19.9764 8.39545 22.0679 8.39545 24.2116C8.39413 25.1367 9.26195 25.6754 9.96278 25.2531C10.3353 25.0293 10.5207 24.6567 10.519 24.1355C10.5128 22.6463 10.5133 19.9654 10.5203 16.0928C10.515 13.4646 10.5155 10.8235 10.5216 8.1695C10.5229 7.53534 10.0759 7.01309 9.53413 6.96833C8.92403 6.91909 8.39545 7.45626 8.39545 8.15011C8.39282 11.3602 8.39282 14.6225 8.39545 17.9371ZM27.4402 16.0495C27.4402 18.8379 27.4423 21.5705 27.4467 24.2474C27.448 25.0039 28.0752 25.5232 28.7011 25.3829C29.2727 25.2556 29.5602 24.8522 29.5637 24.1728C29.5751 21.9923 29.5812 19.8366 29.5821 17.7058C29.583 14.4947 29.5799 11.309 29.5729 8.14861C29.5703 7.32495 28.8576 6.78628 28.1949 7.03249C27.3849 7.3339 27.4388 8.00686 27.4388 8.82008C27.4388 11.2781 27.4393 13.688 27.4402 16.0495ZM4.82424 17.9923C4.80934 18.9383 4.80452 19.9366 4.80977 20.987C4.8124 21.6123 4.73746 22.1121 5.26604 22.518C5.95372 23.0462 6.87545 22.6314 6.88728 21.6555C6.90131 20.3355 6.90394 18.5618 6.89517 16.3345C6.90306 14.4455 6.90876 12.5584 6.91227 10.6733C6.91227 10.2088 6.74352 9.86458 6.40604 9.64076C6.08696 9.42987 5.75868 9.42142 5.42119 9.61539C4.99868 9.85911 4.78917 10.2481 4.79268 10.7823C4.80934 13.119 4.81986 15.5223 4.82424 17.9923ZM31.0587 18.7846C31.0526 19.7297 31.0451 20.6548 31.0363 21.56C31.032 21.9579 31.1678 22.2723 31.444 22.5031C32.0777 23.0313 33.0954 22.6627 33.1165 21.6928C33.127 21.1606 33.1283 20.6936 33.1204 20.2917C33.1257 17.0189 33.1288 13.8123 33.1296 10.6718C33.1296 9.09016 31.0679 9.12299 31.0626 10.5942C31.0548 13.3438 31.0534 16.0739 31.0587 18.7846ZM12.0429 16.4226C12.0131 16.6862 12.0232 16.9239 12.0732 17.1358C12.0854 17.1865 12.1148 17.2119 12.1613 17.2119L16.67 17.2089C16.6987 17.2091 16.7265 17.1969 16.7479 17.1748C16.7693 17.1528 16.7828 17.1224 16.7857 17.0896C16.9058 15.7277 17.0855 14.4947 17.3248 13.3905C17.3879 13.0991 17.4322 13.103 17.4576 13.4025C17.8047 17.4148 17.9546 21.5958 18.2925 25.6023C18.3539 26.3245 18.6852 26.7109 19.2866 26.7616C19.8086 26.8064 20.1886 26.3961 20.3069 25.8559C20.5055 24.9502 20.5331 23.9818 20.6659 23.0611C20.8061 22.0932 20.917 21.2323 20.9986 20.4782C21.2554 18.1107 21.503 15.7312 21.7415 13.3398C21.7546 13.2125 21.7831 13.208 21.8269 13.3264C21.8602 13.4159 21.8839 13.5099 21.8979 13.6084C22.0154 14.4549 22.1044 15.3532 22.1649 16.3032C22.1815 16.5698 22.2139 16.8468 22.2622 17.1343C22.2709 17.186 22.2985 17.2119 22.345 17.2119L25.815 17.2074C25.8468 17.207 25.8772 17.1924 25.8997 17.1667C25.9221 17.141 25.9346 17.1063 25.9346 17.0702L25.9359 16.4897L25.9372 15.4601C25.9376 15.4308 25.9275 15.4026 25.9093 15.3816C25.891 15.3606 25.8661 15.3486 25.8399 15.3482L23.4692 15.3393C23.4396 15.3388 23.4112 15.3262 23.389 15.3038C23.3668 15.2813 23.3523 15.2505 23.3483 15.2169C23.1878 13.8322 22.9919 12.4181 22.7605 10.9747C22.707 10.6415 22.5405 10.364 22.2608 10.1421C21.9987 9.93422 21.7423 9.8805 21.4916 9.98097C20.9144 10.2123 20.6975 10.742 20.6343 11.4298C20.5327 12.534 20.3819 13.9282 20.182 15.6123C20.0637 16.616 19.9545 17.9028 19.8546 19.4725C19.8362 19.769 19.7915 20.1773 19.7205 20.6976L19.5759 21.8987C19.5715 21.9296 19.5561 21.948 19.5298 21.954C19.5158 21.9579 19.5035 21.954 19.493 21.942C19.4764 21.9241 19.4672 21.9027 19.4654 21.8779C19.4268 21.4024 19.3712 20.9587 19.2984 20.5469C19.0924 17.5307 18.8518 14.5459 18.5766 11.5925C18.5652 11.4701 18.5573 11.3463 18.5529 11.2209C18.5336 10.7325 18.3438 10.351 17.9835 10.0765C17.3708 9.60793 16.3978 9.99738 16.2703 10.8658C16.0283 12.5092 15.846 13.9784 15.7233 15.2736C15.7189 15.3224 15.6948 15.3467 15.6509 15.3467L12.1731 15.3408C12.1409 15.3408 12.11 15.3552 12.0871 15.3809C12.0642 15.4066 12.0512 15.4415 12.0508 15.478L12.0429 16.4226ZM3.37787 14.444C3.37787 14.1681 3.28132 13.9036 3.10944 13.7086C2.93757 13.5135 2.70446 13.404 2.4614 13.404H2.38251C2.13945 13.404 1.90634 13.5135 1.73447 13.7086C1.56259 13.9036 1.46604 14.1681 1.46604 14.444V17.5596C1.46604 17.8354 1.56259 18.0999 1.73447 18.295C1.90634 18.49 2.13945 18.5996 2.38251 18.5996H2.4614C2.70446 18.5996 2.93757 18.49 3.10944 18.295C3.28132 18.0999 3.37787 17.8354 3.37787 17.5596V14.444ZM34.5905 15.0752C34.5861 15.9496 34.5927 16.7926 34.6102 17.6043C34.6391 18.9756 36.4839 18.9488 36.5062 17.57C36.5115 17.199 36.5119 16.8414 36.5076 16.4972C36.5102 15.9222 36.5102 15.3552 36.5076 14.7961C36.5049 14.4271 36.4769 14.1679 36.4234 14.0187C36.0802 13.0727 34.6628 13.2786 34.5918 14.3574C34.5804 14.5355 34.5799 14.7747 34.5905 15.0752Z" fill="black"/>
<path d="M20.0348 8.38884C20.0383 8.36895 20.0348 8.35452 20.0243 8.34557C20.0164 8.3396 20.0081 8.33911 19.9993 8.34408L19.9572 8.36646C19.9388 8.37641 19.9213 8.37492 19.9046 8.36199L18.2545 7.08322C18.2553 5.60699 18.2523 4.15363 18.2453 2.72316C18.2413 1.88905 19.0973 1.58316 19.668 1.95918C20.0401 2.2024 20.0309 2.62617 20.0322 3.10366C20.0348 4.8634 20.0357 6.62513 20.0348 8.38884Z" fill="#FFD800"/>
<path d="M10.5204 16.0928L8.39553 17.9371C8.3929 14.6225 8.3929 11.3602 8.39553 8.15011C8.39553 7.45626 8.92411 6.91909 9.53421 6.96833C10.0759 7.01309 10.523 7.53534 10.5217 8.16951C10.5156 10.8235 10.5151 13.4646 10.5204 16.0928Z" fill="#FFD800"/>
<path d="M29.5821 17.7058C28.901 17.091 28.187 16.5389 27.4402 16.0495C27.4393 13.688 27.4389 11.2781 27.4389 8.82007C27.4389 8.00685 27.3849 7.3339 28.1949 7.03248C28.8576 6.78628 29.5703 7.32494 29.5729 8.14861C29.5799 11.309 29.583 14.4947 29.5821 17.7058Z" fill="#FFD800"/>
<path d="M20.0349 8.38884C20.0927 8.86932 19.966 9.25031 19.6549 9.53183C19.6137 9.56963 19.5782 9.56316 19.5484 9.51243C19.2582 9.01007 18.8563 8.6251 18.3426 8.35751C18.2962 8.33363 18.2725 8.29285 18.2716 8.23515L18.2545 7.08322L19.9047 8.36199C19.9213 8.37492 19.9389 8.37641 19.9573 8.36646L19.9994 8.34408C20.0081 8.33911 20.0165 8.3396 20.0243 8.34557C20.0349 8.35452 20.0384 8.36895 20.0349 8.38884Z" fill="#FFB500"/>
<path d="M6.89526 16.3345C6.49992 16.5444 6.22555 16.7414 6.07215 16.9254C5.70223 17.3671 5.28629 17.7227 4.82433 17.9923C4.81994 15.5223 4.80942 13.119 4.79277 10.7823C4.78926 10.2481 4.99877 9.85912 5.42128 9.6154C5.75877 9.42142 6.08705 9.42987 6.40612 9.64076C6.74361 9.86459 6.91235 10.2088 6.91235 10.6733C6.90885 12.5584 6.90315 14.4455 6.89526 16.3345Z" fill="#FFD800"/>
<path d="M33.1204 20.2917L31.0587 18.7846C31.0534 16.0739 31.0548 13.3438 31.0626 10.5942C31.0679 9.12298 33.1296 9.09016 33.1296 10.6718C33.1288 13.8123 33.1257 17.0189 33.1204 20.2917Z" fill="#FFD800"/>
<path d="M19.2985 20.5469C19.2152 20.6642 19.0666 20.617 18.8527 20.4051C18.6568 20.2126 18.6253 19.9172 18.6055 19.6441C18.5564 18.9806 18.5144 18.2848 18.4793 17.5566C18.4258 16.4484 18.2356 14.4629 17.9086 11.6C17.8771 11.3239 17.7509 11.0165 17.4695 10.9971C17.1066 10.9703 16.9023 11.1588 16.8567 11.5626C16.7551 12.4689 16.6161 13.4875 16.4399 14.6186C16.3558 15.1617 16.287 15.7133 16.2335 16.2734C16.2306 16.3034 16.2181 16.3312 16.1984 16.3513C16.1787 16.3714 16.1533 16.3824 16.127 16.3823L12.043 16.4226L12.0509 15.478C12.0512 15.4415 12.0642 15.4066 12.0871 15.3809C12.11 15.3552 12.1409 15.3408 12.1731 15.3408L15.651 15.3467C15.6948 15.3467 15.7189 15.3224 15.7233 15.2736C15.846 13.9784 16.0284 12.5092 16.2703 10.8658C16.3978 9.99739 17.3709 9.60794 17.9836 10.0765C18.3439 10.351 18.5337 10.7325 18.5529 11.2209C18.5573 11.3463 18.5652 11.4701 18.5766 11.5925C18.8519 14.5459 19.0925 17.5307 19.2985 20.5469Z" fill="#FFD800"/>
<path d="M25.936 16.4897C24.9358 16.3922 23.951 16.3708 22.9815 16.4255C22.9487 16.4275 22.9164 16.4155 22.8911 16.392C22.8658 16.3685 22.8493 16.3353 22.8447 16.2987C22.7606 15.6422 22.69 14.9961 22.633 14.3604C22.5423 13.3532 22.3254 12.4385 22.1965 11.4701C22.1465 11.1001 21.8796 10.9359 21.5903 11.1046C21.3471 11.2463 21.3234 11.6208 21.2919 11.8909C21.163 13.016 21.039 14.1331 20.9198 15.2423C20.7883 16.4718 20.5161 18.2594 20.4201 19.7456C20.3859 20.2609 20.1527 20.5782 19.7206 20.6976C19.7916 20.1773 19.8363 19.769 19.8547 19.4725C19.9546 17.9028 20.0638 16.616 20.1821 15.6123C20.382 13.9282 20.5327 12.534 20.6344 11.4298C20.6975 10.742 20.9145 10.2122 21.4917 9.98097C21.7424 9.8805 21.9988 9.93421 22.2609 10.1421C22.5406 10.364 22.7071 10.6415 22.7606 10.9747C22.992 12.4181 23.1879 13.8322 23.3483 15.2169C23.3524 15.2505 23.3669 15.2813 23.3891 15.3038C23.4113 15.3262 23.4397 15.3388 23.4693 15.3393L25.84 15.3482C25.8662 15.3486 25.8911 15.3606 25.9094 15.3816C25.9276 15.4026 25.9377 15.4308 25.9373 15.4601L25.936 16.4897Z" fill="#FFD800"/>
<path d="M19.2985 20.5469C19.3712 20.9587 19.4269 21.4024 19.4654 21.8779C19.4672 21.9027 19.4764 21.9241 19.4931 21.942C19.5036 21.954 19.5158 21.9579 19.5299 21.954C19.5562 21.948 19.5715 21.9296 19.5759 21.8987L19.7205 20.6976C20.1527 20.5782 20.3859 20.2609 20.42 19.7456C20.516 18.2594 20.7882 16.4718 20.9197 15.2423C21.0389 14.1331 21.1629 13.016 21.2918 11.8909C21.3234 11.6208 21.347 11.2463 21.5903 11.1046C21.8796 10.9359 22.1465 11.1001 22.1964 11.4701C22.3253 12.4385 22.5423 13.3532 22.633 14.3604C22.69 14.9961 22.7605 15.6422 22.8447 16.2987C22.8492 16.3353 22.8658 16.3686 22.8911 16.392C22.9164 16.4155 22.9486 16.4275 22.9814 16.4256C23.9509 16.3708 24.9358 16.3922 25.936 16.4897L25.9346 17.0702C25.9346 17.1063 25.9221 17.141 25.8997 17.1667C25.8773 17.1924 25.8468 17.207 25.815 17.2074L22.345 17.2119C22.2986 17.2119 22.271 17.186 22.2622 17.1343C22.214 16.8468 22.1815 16.5698 22.1649 16.3032C22.1044 15.3532 22.0154 14.4549 21.898 13.6084C21.8839 13.5099 21.8603 13.4159 21.827 13.3264C21.7831 13.208 21.7546 13.2125 21.7415 13.3398C21.5031 15.7312 21.2554 18.1107 20.9986 20.4782C20.9171 21.2323 20.8062 22.0932 20.6659 23.0611C20.5331 23.9818 20.5055 24.9502 20.307 25.8559C20.1886 26.3961 19.8086 26.8064 19.2866 26.7617C18.6853 26.7109 18.3539 26.3245 18.2926 25.6023C17.9546 21.5958 17.8047 17.4148 17.4576 13.4025C17.4322 13.103 17.3879 13.0991 17.3248 13.3905C17.0855 14.4947 16.9058 15.7277 16.7857 17.0896C16.7828 17.1224 16.7693 17.1528 16.7479 17.1748C16.7265 17.1969 16.6988 17.2091 16.67 17.2089L12.1613 17.2119C12.1148 17.2119 12.0855 17.1865 12.0732 17.1358C12.0232 16.9239 12.0131 16.6862 12.0429 16.4226L16.127 16.3823C16.1533 16.3824 16.1787 16.3714 16.1984 16.3513C16.218 16.3312 16.2305 16.3034 16.2335 16.2734C16.2869 15.7133 16.3558 15.1617 16.4399 14.6186C16.6161 13.4875 16.755 12.4689 16.8567 11.5626C16.9023 11.1588 17.1065 10.9703 17.4695 10.9971C17.7508 11.0165 17.8771 11.3239 17.9086 11.6C18.2356 14.4629 18.4258 16.4484 18.4793 17.5566C18.5143 18.2848 18.5564 18.9806 18.6055 19.6441C18.6252 19.9172 18.6568 20.2126 18.8527 20.4051C19.0666 20.617 19.2152 20.6642 19.2985 20.5469Z" fill="#FFB500"/>
<path d="M2.46143 13.404H2.38254C1.87638 13.404 1.46606 13.8696 1.46606 14.444V17.5596C1.46606 18.134 1.87638 18.5996 2.38254 18.5996H2.46143C2.96758 18.5996 3.3779 18.134 3.3779 17.5596V14.444C3.3779 13.8696 2.96758 13.404 2.46143 13.404Z" fill="#FFB500"/>
<path d="M36.5076 16.4972C36.4024 16.523 36.295 16.4634 36.1854 16.3181C36.082 16.1798 36.0031 16.0873 35.9487 16.0406C35.5218 15.6715 35.0691 15.3497 34.5905 15.0752C34.5799 14.7747 34.5804 14.5355 34.5918 14.3574C34.6628 13.2786 36.0802 13.0727 36.4234 14.0187C36.4769 14.1679 36.5049 14.4271 36.5076 14.7961C36.5102 15.3552 36.5102 15.9222 36.5076 16.4972Z" fill="#FFD800"/>
<path d="M36.5076 16.4972C36.512 16.8414 36.5116 17.199 36.5063 17.57C36.484 18.9488 34.6392 18.9756 34.6103 17.6043C34.5927 16.7926 34.5862 15.9496 34.5905 15.0752C35.0692 15.3497 35.5219 15.6715 35.9488 16.0406C36.0032 16.0873 36.0821 16.1798 36.1855 16.3181C36.2951 16.4634 36.4024 16.523 36.5076 16.4972Z" fill="#FFB500"/>
<path d="M10.5204 16.0928C10.5133 19.9654 10.5129 22.6463 10.519 24.1355C10.5208 24.6567 10.3354 25.0293 9.96285 25.2531C9.26202 25.6754 8.39419 25.1367 8.39551 24.2116C8.39551 22.0678 8.39551 19.9764 8.39551 17.9371L10.5204 16.0928Z" fill="#FFB500"/>
<path d="M29.5821 17.7058C29.5812 19.8366 29.5751 21.9922 29.5637 24.1728C29.5602 24.8522 29.2727 25.2556 28.7012 25.3829C28.0753 25.5232 27.4481 25.0039 27.4468 24.2474C27.4424 21.5705 27.4402 18.8379 27.4402 16.0495C28.187 16.539 28.901 17.091 29.5821 17.7058Z" fill="#FFB500"/>
<path d="M6.89519 16.3345C6.90396 18.5618 6.90133 20.3355 6.8873 21.6555C6.87547 22.6314 5.95374 23.0462 5.26606 22.518C4.73748 22.1121 4.81242 21.6122 4.80979 20.987C4.80453 19.9366 4.80936 18.9383 4.82426 17.9923C5.28622 17.7227 5.70216 17.3671 6.07208 16.9254C6.22548 16.7414 6.49985 16.5444 6.89519 16.3345Z" fill="#FFB500"/>
<path d="M33.1204 20.2917C33.1283 20.6936 33.127 21.1606 33.1165 21.6928C33.0955 22.6627 32.0777 23.0313 31.444 22.5031C31.1678 22.2723 31.032 21.9579 31.0364 21.56C31.0451 20.6548 31.0526 19.7297 31.0587 18.7846L33.1204 20.2917Z" fill="#FFB500"/>
</g>
<defs>
<clipPath id="clip0_263_68">
<rect width="38" height="28.5" fill="white"/>
</clipPath>
</defs>
</svg>
