<svg width="48px" height="48px" version="1.1" xmlns="http://www.w3.org/2000/svg" xmlns:xlink="http://www.w3.org/1999/xlink" x="0px" y="0px" viewBox="0 0 48 48" enable-background="new 0 0 48 48" xml:space="preserve">
<path style="fill:#FF8F00;" d="M 39.464844 17.125 C 41.300781 16.949219 41.8125 15.519531 41.945313 14.566406 C 41.890625 12.671875 41.285156 10.71875 37.914063 9.964844 L 6 6 L 6 15.90625 L 25.714844 18.308594 Z "></path>
<path style="fill:#FF8F00;" d="M 42 42 L 10.050781 38.238281 C 6.835938 37.597656 6 35.433594 6 33.6875 L 6 24.292969 C 6 24.402344 6.03125 27.003906 8.644531 27.527344 L 42 31.242188 Z "></path>
<path style="fill:#FFCA28;" d="M 8.644531 27.527344 L 21.261719 28.929688 L 37.605469 27.453125 C 40.8125 27.140625 41.953125 24.851563 41.953125 22.984375 L 42 13.910156 C 42 14.605469 41.816406 16.898438 39.464844 17.125 L 10.082031 19.65625 C 10.035156 19.660156 9.988281 19.664063 9.945313 19.675781 C 6.828125 20.375 6 22.359375 6 24.058594 L 6 24.292969 C 6 24.402344 6.03125 27.003906 8.644531 27.527344 Z "></path>
<path style="fill:#ED8F29;" d="M 35 17.511719 L 33 17.683594 L 33 24 L 35 24 Z "></path>
<path style="fill:#ED8F29;" d="M 14.988281 19.230469 L 13 19.402344 L 13 23.796875 L 14.988281 23.796875 Z "></path>
<path style="fill:#ED8F29;" d="M 30.96875 17.855469 L 29 18.027344 L 29 21.933594 L 30.96875 21.933594 Z "></path>
<path style="fill:#ED8F29;" d="M 10.082031 19.65625 C 10.035156 19.660156 9.988281 19.664063 9.945313 19.675781 C 9.601563 19.753906 9.296875 19.851563 9 19.960938 L 9 26 L 10.992188 26 L 10.992188 19.578125 Z "></path>
<path style="fill:#ED8F29;" d="M 18.984375 18.890625 L 17 19.0625 L 17 22.960938 L 18.984375 22.960938 Z "></path>
<path style="fill:#ED8F29;" d="M 27 18.199219 L 25 18.371094 L 25 23 L 27 23 Z "></path>
<path style="fill:#ED8F29;" d="M 38.996094 17.167969 L 37 17.339844 L 37.039063 21 L 38.996094 21 Z "></path>
<path style="fill:#ED8F29;" d="M 23 18.546875 L 21 18.71875 L 21 25 L 23 25 Z "></path>
<path style="fill:#B75F00;" d="M 31 30.019531 L 29.003906 29.796875 L 29.003906 33.550781 L 31 33.550781 Z "></path>
<path style="fill:#B75F00;" d="M 35 30.453125 L 33.003906 30.230469 L 33.003906 36 L 35 36 Z "></path>
<path style="fill:#B75F00;" d="M 11 27.792969 L 9.003906 27.570313 L 9.003906 33.550781 L 11 33.550781 Z "></path>
<path style="fill:#B75F00;" d="M 26.996094 29.550781 L 25 29.328125 L 25 33 L 26.996094 33 Z "></path>
<path style="fill:#B75F00;" d="M 23 29.128906 L 21.003906 28.90625 L 21.003906 34.539063 L 23 34.539063 Z "></path>
<path style="fill:#B75F00;" d="M 15 28.238281 L 13.003906 28.015625 L 13.003906 31.570313 L 15 31.570313 Z "></path>
<path style="fill:#B75F00;" d="M 37 30.601563 L 37 34 L 38.996094 34 L 38.996094 30.820313 Z "></path>
<path style="fill:#B75F00;" d="M 19 28.683594 L 17.003906 28.460938 L 17.003906 32.101563 L 19 32.101563 Z "></path>
<path style="fill:#B75F00;" d="M 26.996094 8.605469 L 25 8.355469 L 25 12.394531 L 26.996094 12.394531 Z "></path>
<path style="fill:#B75F00;" d="M 22.996094 8.109375 L 21 7.859375 L 21 13.910156 L 22.996094 13.910156 Z "></path>
<path style="fill:#B75F00;" d="M 30.996094 9.101563 L 29.003906 8.851563 L 29.003906 12.921875 L 30.996094 12.921875 Z "></path>
<path style="fill:#B75F00;" d="M 10.996094 6.621094 L 9 6.371094 L 9 12.921875 L 10.996094 12.921875 Z "></path>
<path style="fill:#B75F00;" d="M 18.996094 7.613281 L 17 7.363281 L 17 11.472656 L 18.996094 11.472656 Z "></path>
<path style="fill:#B75F00;" d="M 14.996094 7.117188 L 13 6.867188 L 13 10.945313 L 14.996094 10.945313 Z "></path>
<path style="fill:#B75F00;" d="M 38.957031 10.269531 C 38.640625 10.152344 38.300781 10.050781 37.914063 9.964844 L 37 9.84375 L 37 13.457031 L 38.957031 13.457031 Z "></path>
<path style="fill:#B75F00;" d="M 34.996094 9.597656 L 33 9.347656 L 33 15.382813 L 34.996094 15.382813 Z "></path>
</svg>