<svg width="40" height="40" viewBox="0 0 40 40" fill="none" xmlns="http://www.w3.org/2000/svg">
<path d="M32.5 8.33337L30.1375 34.3175C30.06 35.1759 29.34 35.8334 28.4783 35.8334H11.5217C10.66 35.8334 9.94 35.1759 9.86167 34.3175L7.5 8.33337H32.5Z" fill="url(#paint0_linear_99_349)"/>
<path d="M26.6668 5.83329C26.6668 4.91246 25.921 4.16663 25.0002 4.16663H15.0002C14.0793 4.16663 13.3335 4.91246 13.3335 5.83329C13.3335 5.83329 13.3335 6.36163 13.3335 6.66663H26.6668C26.6668 6.36163 26.6668 5.83329 26.6668 5.83329Z" fill="#0176D0"/>
<path d="M5.8335 8.23837C5.8335 7.80254 6.13183 7.42671 6.55683 7.33337C8.47766 6.91087 13.9693 5.83337 20.0002 5.83337C26.031 5.83337 31.5227 6.91087 33.4435 7.33337C33.8685 7.42671 34.1668 7.80254 34.1668 8.23837C34.1668 8.75087 33.751 9.16671 33.2385 9.16671H6.76183C6.24933 9.16671 5.8335 8.75087 5.8335 8.23837Z" fill="#007AD9"/>
<defs>
<linearGradient id="paint0_linear_99_349" x1="15.3375" y1="9.09171" x2="28.1783" y2="36.2367" gradientUnits="userSpaceOnUse">
<stop stop-color="#32BDEF"/>
<stop offset="1" stop-color="#1EA2E4"/>
</linearGradient>
</defs>
</svg>
