<?xml version="1.0" encoding="UTF-8" standalone="no"?>
<!DOCTYPE svg PUBLIC "-//W3C//DTD SVG 1.1//EN" "http://www.w3.org/Graphics/SVG/1.1/DTD/svg11.dtd">
<svg xmlns="http://www.w3.org/2000/svg" version="1.1" viewBox="0.00 0.00 400.00 400.00">
<g stroke-width="2.00" fill="none" stroke-linecap="butt">
<path stroke="#805b00" vector-effect="non-scaling-stroke" d="
  M 195.83 102.47
  L 195.96 110.19
  Q 195.97 110.77 196.50 111.01
  Q 202.36 113.70 205.67 118.75
  Q 206.01 119.26 206.48 118.88
  Q 210.03 116.05 209.37 111.22"
/>
<path stroke="#806c00" vector-effect="non-scaling-stroke" d="
  M 209.37 111.22
  Q 209.38 93.49 209.35 75.80
  C 209.34 72.60 209.41 69.76 206.58 68.13
  C 202.24 65.61 195.73 67.66 195.76 73.25
  Q 195.84 87.63 195.83 102.47"
/>
<path stroke="#ffc700" vector-effect="non-scaling-stroke" d="
  M 209.37 111.22
  Q 209.41 111.02 209.29 110.93
  Q 209.20 110.87 209.10 110.92
  L 208.78 111.07
  Q 208.57 111.17 208.38 111.04
  L 195.83 102.47"
/>
<path stroke="#805b00" vector-effect="non-scaling-stroke" d="
  M 120.85 175.21
  Q 120.85 195.71 120.85 217.26
  C 120.84 223.46 127.44 227.07 132.77 224.24
  Q 137.02 221.99 137.00 216.75
  Q 136.93 201.78 137.01 162.85"
/>
<path stroke="#806c00" vector-effect="non-scaling-stroke" d="
  M 137.01 162.85
  Q 136.95 136.43 137.02 109.75
  C 137.03 105.50 133.63 102.00 129.51 101.70
  C 124.87 101.37 120.85 104.97 120.85 109.62
  Q 120.82 141.89 120.85 175.21"
/>
<path stroke="#ffc700" vector-effect="non-scaling-stroke" d="
  M 137.01 162.85
  L 120.85 175.21"
/>
<path stroke="#805b00" vector-effect="non-scaling-stroke" d="
  M 265.69 162.56
  Q 265.69 190.59 265.74 217.50
  C 265.75 222.57 270.52 226.05 275.28 225.11
  Q 281.80 223.83 281.84 217.00
  Q 281.97 195.08 281.98 173.66"
/>
<path stroke="#806c00" vector-effect="non-scaling-stroke" d="
  M 281.98 173.66
  Q 281.99 141.38 281.91 109.61
  C 281.89 104.09 276.47 100.48 271.43 102.13
  C 265.27 104.15 265.68 108.66 265.68 114.11
  Q 265.68 138.82 265.69 162.56"
/>
<path stroke="#ffc700" vector-effect="non-scaling-stroke" d="
  M 281.98 173.66
  Q 274.21 167.48 265.69 162.56"
/>
<path stroke="#805b00" vector-effect="non-scaling-stroke" d="
  M 93.69 175.58
  Q 93.52 185.09 93.58 195.65
  C 93.60 199.84 93.03 203.19 97.05 205.91
  C 102.28 209.45 109.29 206.67 109.38 200.13
  Q 109.54 186.86 109.44 164.47"
/>
<path stroke="#806c00" vector-effect="non-scaling-stroke" d="
  M 109.44 164.47
  Q 109.53 145.48 109.57 126.53
  Q 109.57 121.86 105.72 119.61
  Q 102.08 117.49 98.23 119.44
  Q 93.41 121.89 93.45 127.26
  Q 93.64 150.75 93.69 175.58"
/>
<path stroke="#ffc700" vector-effect="non-scaling-stroke" d="
  M 109.44 164.47
  Q 104.93 166.58 103.18 168.43
  Q 98.96 172.87 93.69 175.58"
/>
<path stroke="#805b00" vector-effect="non-scaling-stroke" d="
  M 293.21 180.89
  Q 293.14 190.39 293.04 199.49
  Q 292.99 203.49 296.14 205.81
  C 300.96 209.35 308.70 206.88 308.86 200.38
  Q 308.98 195.03 308.89 190.99"
/>
<path stroke="#806c00" vector-effect="non-scaling-stroke" d="
  M 308.89 190.99
  Q 308.95 158.09 308.96 126.52
  C 308.96 115.92 293.28 116.14 293.24 126.00
  Q 293.15 153.64 293.21 180.89"
/>
<path stroke="#ffc700" vector-effect="non-scaling-stroke" d="
  M 308.89 190.99
  L 293.21 180.89"
/>
<path stroke="#805b00" vector-effect="non-scaling-stroke" d="
  M 148.59 165.06
  Q 148.25 167.71 148.82 169.84
  Q 148.96 170.35 149.49 170.35
  L 183.78 170.33
  A 0.89 0.88 -87.1 0 0 184.66 169.53
  Q 186.03 155.84 188.76 144.74
  Q 189.48 141.81 189.77 144.82
  C 192.41 171.71 193.55 199.73 196.12 226.58
  Q 196.82 233.84 203.68 234.35
  C 207.65 234.65 210.54 231.90 211.44 228.28
  C 212.95 222.21 213.16 215.72 214.17 209.55
  Q 215.77 199.82 216.70 192.24
  Q 219.63 168.44 222.35 144.40
  Q 222.50 143.12 223.00 144.31
  Q 223.38 145.21 223.54 146.20
  Q 224.88 154.71 225.57 164.26
  Q 225.76 166.94 226.31 169.83
  Q 226.41 170.35 226.94 170.35
  L 253.33 170.32
  A 0.92 0.92 0.0 0 0 254.24 169.40
  L 254.25 165.51"
/>
<path stroke="#806c00" vector-effect="non-scaling-stroke" d="
  M 254.25 165.51
  L 254.26 158.61
  A 0.75 0.74 0.8 0 0 253.52 157.86
  L 235.49 157.80
  A 0.95 0.94 86.4 0 1 234.57 156.98
  Q 232.74 143.06 230.10 128.55
  Q 229.49 125.20 226.30 122.97
  Q 223.31 120.88 220.45 121.89
  C 216.06 123.44 214.41 126.99 213.93 131.60
  Q 212.77 142.70 210.49 159.63
  Q 209.14 169.72 208.00 185.50
  Q 207.79 188.48 206.98 193.71"
/>
<path stroke="#805b00" vector-effect="non-scaling-stroke" d="
  M 206.98 193.71
  L 205.88 201.76
  Q 205.83 202.07 205.53 202.13
  Q 205.37 202.17 205.25 202.05
  Q 205.06 201.87 205.04 201.62
  Q 204.60 196.84 203.77 192.70"
/>
<path stroke="#806c00" vector-effect="non-scaling-stroke" d="
  M 203.77 192.70
  Q 201.42 162.38 198.28 132.69
  Q 198.15 131.46 198.10 130.20
  Q 197.88 125.29 193.77 122.53
  C 189.11 119.39 181.71 122.00 180.74 127.82
  Q 177.98 144.34 176.58 157.36
  Q 176.53 157.85 176.03 157.85
  L 149.58 157.81
  A 0.93 0.93 0.0 0 0 148.65 158.73
  L 148.59 165.06"
/>
<path stroke="#ffc700" vector-effect="non-scaling-stroke" d="
  M 203.77 192.70
  Q 202.82 193.88 200.38 191.75
  C 198.89 190.46 198.65 188.48 198.50 186.65
  Q 197.94 179.98 197.54 172.66
  Q 196.93 161.52 193.20 132.74
  C 192.96 130.89 192.00 128.83 189.86 128.70
  Q 185.72 128.43 185.20 132.49
  Q 184.04 141.60 182.03 152.97
  Q 181.07 158.43 180.46 164.06
  A 0.82 0.81 -86.9 0 1 179.65 164.79
  L 148.59 165.06"
/>
<path stroke="#ffc700" vector-effect="non-scaling-stroke" d="
  M 254.25 165.51
  Q 242.84 164.53 231.78 165.08
  A 1.00 0.99 -5.7 0 1 230.74 164.23
  Q 229.78 157.63 229.13 151.24
  C 228.44 144.49 226.79 138.36 225.81 131.87
  C 225.43 129.39 223.40 128.29 221.20 129.42
  C 219.35 130.37 219.17 132.88 218.93 134.69
  Q 217.46 146.00 216.10 157.15
  C 215.10 165.39 213.03 177.37 212.30 187.33
  Q 211.91 192.51 206.98 193.71"
/>
<path stroke="#805b00" vector-effect="non-scaling-stroke" d="
  M 82.69 151.80
  A 6.97 6.97 0.0 0 0 75.72 144.83
  L 75.12 144.83
  A 6.97 6.97 0.0 0 0 68.15 151.80
  L 68.15 172.68
  A 6.97 6.97 0.0 0 0 75.12 179.65
  L 75.72 179.65
  A 6.97 6.97 0.0 0 0 82.69 172.68
  L 82.69 151.80"
/>
<path stroke="#805b00" vector-effect="non-scaling-stroke" d="
  M 320.07 156.03
  Q 320.02 164.82 320.22 172.98
  C 320.44 182.17 334.47 181.99 334.64 172.75
  Q 334.70 169.02 334.65 165.56"
/>
<path stroke="#806c00" vector-effect="non-scaling-stroke" d="
  M 334.65 165.56
  Q 334.68 159.78 334.65 154.16
  Q 334.62 150.45 334.01 148.95
  C 331.40 142.61 320.62 143.99 320.08 151.22
  Q 319.95 153.01 320.07 156.03"
/>
<path stroke="#ffc700" vector-effect="non-scaling-stroke" d="
  M 334.65 165.56
  Q 333.45 165.82 332.20 164.36
  Q 331.02 162.97 330.40 162.50
  Q 325.53 158.79 320.07 156.03"
/>
</g>
<path fill="#000000" d="
  M 109.34 220.00
  A 0.65 0.64 -89.2 0 0 108.66 219.29
  C 101.83 219.69 95.35 219.56 89.99 215.12
  Q 84.15 210.28 82.85 203.83
  C 82.06 199.91 82.36 196.07 82.29 192.17
  Q 82.28 191.56 81.67 191.59
  Q 79.05 191.71 76.47 191.72
  C 65.95 191.73 57.19 185.08 57.00 174.03
  Q 56.80 162.87 56.89 149.98
  Q 56.91 148.23 57.73 145.41
  Q 58.39 143.14 59.84 141.37
  Q 61.50 139.37 63.26 137.87
  C 68.97 133.02 74.68 133.08 81.68 133.42
  A 0.61 0.61 0.0 0 0 82.32 132.81
  C 82.33 129.47 82.06 126.15 82.78 122.89
  Q 84.31 116.01 89.65 111.37
  C 94.94 106.78 101.95 106.92 108.45 107.06
  Q 109.06 107.07 109.19 106.47
  Q 111.07 97.91 117.05 93.89
  Q 125.89 87.96 136.11 91.31
  C 143.67 93.78 148.49 102.32 148.48 110.07
  Q 148.46 127.78 148.47 145.28
  A 0.75 0.75 0.0 0 0 149.22 146.03
  L 166.51 145.95
  A 0.36 0.35 4.8 0 0 166.86 145.66
  Q 168.39 137.24 169.84 126.81
  Q 170.42 122.66 173.27 117.80
  Q 176.68 112.01 184.42 109.95
  A 0.56 0.55 82.6 0 0 184.83 109.41
  Q 184.91 92.16 184.78 73.14
  Q 184.75 69.26 185.67 66.33
  C 186.60 63.37 189.54 59.06 192.63 57.46
  C 197.81 54.79 203.67 53.36 209.20 56.01
  C 211.07 56.90 213.08 57.46 214.68 58.87
  C 219.17 62.83 220.73 67.54 220.67 74.01
  Q 220.49 91.85 220.63 109.02
  A 0.51 0.50 -2.6 0 0 221.19 109.52
  Q 223.32 109.32 225.38 109.96
  Q 237.17 113.62 240.17 124.72
  Q 241.44 129.41 241.95 138.45
  C 242.08 140.82 242.81 143.19 243.10 145.57
  A 0.59 0.58 86.7 0 0 243.68 146.09
  L 253.53 146.08
  A 0.87 0.87 0.0 0 0 254.40 145.21
  Q 254.37 127.65 254.32 110.30
  Q 254.30 104.59 257.65 98.32
  C 258.52 96.69 260.77 94.38 262.35 93.46
  C 274.85 86.26 290.64 91.16 293.17 106.38
  A 0.82 0.81 85.1 0 0 293.98 107.07
  C 300.82 106.99 307.96 106.78 313.54 111.63
  Q 319.05 116.41 320.33 123.71
  C 320.83 126.56 320.49 129.87 320.58 132.83
  A 0.64 0.63 88.6 0 0 321.22 133.45
  C 325.46 133.38 330.43 132.78 334.39 134.57
  Q 342.36 138.16 344.92 145.73
  Q 346.34 149.90 346.13 157.24
  Q 345.93 164.06 346.12 170.23
  C 346.28 175.32 345.35 179.72 342.28 184.09
  C 336.96 191.66 329.73 191.93 321.18 191.59
  Q 320.57 191.57 320.57 192.18
  C 320.57 198.34 321.25 204.37 317.65 209.81
  Q 311.09 219.74 298.69 219.41
  Q 296.26 219.34 293.67 219.34
  Q 293.10 219.35 293.05 219.92
  Q 292.38 228.67 284.95 233.64
  C 275.84 239.74 263.06 237.48 257.52 227.87
  C 255.37 224.16 254.26 220.73 254.29 216.31
  Q 254.42 199.08 254.34 182.81
  A 0.78 0.77 -0.4 0 0 253.56 182.05
  L 228.78 182.09
  A 0.25 0.25 0.0 0 0 228.53 182.31
  C 227.09 191.08 225.81 199.76 225.11 208.79
  Q 224.29 219.45 221.83 232.34
  Q 220.86 237.37 217.08 240.74
  Q 209.30 247.68 199.80 245.79
  C 191.40 244.12 185.27 236.38 185.15 227.91
  C 184.93 212.72 182.93 196.86 182.01 182.35
  A 0.29 0.28 -1.0 0 0 181.72 182.08
  L 149.16 182.08
  Q 148.57 182.08 148.57 182.66
  Q 148.38 197.96 148.52 214.65
  Q 148.57 220.12 147.11 223.72
  C 139.75 242.01 117.64 241.05 109.94 223.71
  Q 109.15 221.92 109.34 220.00
  Z
  M 195.83 102.47
  L 195.96 110.19
  Q 195.97 110.77 196.50 111.01
  Q 202.36 113.70 205.67 118.75
  Q 206.01 119.26 206.48 118.88
  Q 210.03 116.05 209.37 111.22
  Q 209.38 93.49 209.35 75.80
  C 209.34 72.60 209.41 69.76 206.58 68.13
  C 202.24 65.61 195.73 67.66 195.76 73.25
  Q 195.84 87.63 195.83 102.47
  Z
  M 120.85 175.21
  Q 120.85 195.71 120.85 217.26
  C 120.84 223.46 127.44 227.07 132.77 224.24
  Q 137.02 221.99 137.00 216.75
  Q 136.93 201.78 137.01 162.85
  Q 136.95 136.43 137.02 109.75
  C 137.03 105.50 133.63 102.00 129.51 101.70
  C 124.87 101.37 120.85 104.97 120.85 109.62
  Q 120.82 141.89 120.85 175.21
  Z
  M 265.69 162.56
  Q 265.69 190.59 265.74 217.50
  C 265.75 222.57 270.52 226.05 275.28 225.11
  Q 281.80 223.83 281.84 217.00
  Q 281.97 195.08 281.98 173.66
  Q 281.99 141.38 281.91 109.61
  C 281.89 104.09 276.47 100.48 271.43 102.13
  C 265.27 104.15 265.68 108.66 265.68 114.11
  Q 265.68 138.82 265.69 162.56
  Z
  M 93.69 175.58
  Q 93.52 185.09 93.58 195.65
  C 93.60 199.84 93.03 203.19 97.05 205.91
  C 102.28 209.45 109.29 206.67 109.38 200.13
  Q 109.54 186.86 109.44 164.47
  Q 109.53 145.48 109.57 126.53
  Q 109.57 121.86 105.72 119.61
  Q 102.08 117.49 98.23 119.44
  Q 93.41 121.89 93.45 127.26
  Q 93.64 150.75 93.69 175.58
  Z
  M 293.21 180.89
  Q 293.14 190.39 293.04 199.49
  Q 292.99 203.49 296.14 205.81
  C 300.96 209.35 308.70 206.88 308.86 200.38
  Q 308.98 195.03 308.89 190.99
  Q 308.95 158.09 308.96 126.52
  C 308.96 115.92 293.28 116.14 293.24 126.00
  Q 293.15 153.64 293.21 180.89
  Z
  M 148.59 165.06
  Q 148.25 167.71 148.82 169.84
  Q 148.96 170.35 149.49 170.35
  L 183.78 170.33
  A 0.89 0.88 -87.1 0 0 184.66 169.53
  Q 186.03 155.84 188.76 144.74
  Q 189.48 141.81 189.77 144.82
  C 192.41 171.71 193.55 199.73 196.12 226.58
  Q 196.82 233.84 203.68 234.35
  C 207.65 234.65 210.54 231.90 211.44 228.28
  C 212.95 222.21 213.16 215.72 214.17 209.55
  Q 215.77 199.82 216.70 192.24
  Q 219.63 168.44 222.35 144.40
  Q 222.50 143.12 223.00 144.31
  Q 223.38 145.21 223.54 146.20
  Q 224.88 154.71 225.57 164.26
  Q 225.76 166.94 226.31 169.83
  Q 226.41 170.35 226.94 170.35
  L 253.33 170.32
  A 0.92 0.92 0.0 0 0 254.24 169.40
  L 254.25 165.51
  L 254.26 158.61
  A 0.75 0.74 0.8 0 0 253.52 157.86
  L 235.49 157.80
  A 0.95 0.94 86.4 0 1 234.57 156.98
  Q 232.74 143.06 230.10 128.55
  Q 229.49 125.20 226.30 122.97
  Q 223.31 120.88 220.45 121.89
  C 216.06 123.44 214.41 126.99 213.93 131.60
  Q 212.77 142.70 210.49 159.63
  Q 209.14 169.72 208.00 185.50
  Q 207.79 188.48 206.98 193.71
  L 205.88 201.76
  Q 205.83 202.07 205.53 202.13
  Q 205.37 202.17 205.25 202.05
  Q 205.06 201.87 205.04 201.62
  Q 204.60 196.84 203.77 192.70
  Q 201.42 162.38 198.28 132.69
  Q 198.15 131.46 198.10 130.20
  Q 197.88 125.29 193.77 122.53
  C 189.11 119.39 181.71 122.00 180.74 127.82
  Q 177.98 144.34 176.58 157.36
  Q 176.53 157.85 176.03 157.85
  L 149.58 157.81
  A 0.93 0.93 0.0 0 0 148.65 158.73
  L 148.59 165.06
  Z
  M 82.69 151.80
  A 6.97 6.97 0.0 0 0 75.72 144.83
  L 75.12 144.83
  A 6.97 6.97 0.0 0 0 68.15 151.80
  L 68.15 172.68
  A 6.97 6.97 0.0 0 0 75.12 179.65
  L 75.72 179.65
  A 6.97 6.97 0.0 0 0 82.69 172.68
  L 82.69 151.80
  Z
  M 320.07 156.03
  Q 320.02 164.82 320.22 172.98
  C 320.44 182.17 334.47 181.99 334.64 172.75
  Q 334.70 169.02 334.65 165.56
  Q 334.68 159.78 334.65 154.16
  Q 334.62 150.45 334.01 148.95
  C 331.40 142.61 320.62 143.99 320.08 151.22
  Q 319.95 153.01 320.07 156.03
  Z"
/>
<path fill="#ffd800" d="
  M 209.37 111.22
  Q 209.41 111.02 209.29 110.93
  Q 209.20 110.87 209.10 110.92
  L 208.78 111.07
  Q 208.57 111.17 208.38 111.04
  L 195.83 102.47
  Q 195.84 87.63 195.76 73.25
  C 195.73 67.66 202.24 65.61 206.58 68.13
  C 209.41 69.76 209.34 72.60 209.35 75.80
  Q 209.38 93.49 209.37 111.22
  Z"
/>
<path fill="#ffd800" d="
  M 137.01 162.85
  L 120.85 175.21
  Q 120.82 141.89 120.85 109.62
  C 120.85 104.97 124.87 101.37 129.51 101.70
  C 133.63 102.00 137.03 105.50 137.02 109.75
  Q 136.95 136.43 137.01 162.85
  Z"
/>
<path fill="#ffd800" d="
  M 281.98 173.66
  Q 274.21 167.48 265.69 162.56
  Q 265.68 138.82 265.68 114.11
  C 265.68 108.66 265.27 104.15 271.43 102.13
  C 276.47 100.48 281.89 104.09 281.91 109.61
  Q 281.99 141.38 281.98 173.66
  Z"
/>
<path fill="#ffb500" d="
  M 209.37 111.22
  Q 210.03 116.05 206.48 118.88
  Q 206.01 119.26 205.67 118.75
  Q 202.36 113.70 196.50 111.01
  Q 195.97 110.77 195.96 110.19
  L 195.83 102.47
  L 208.38 111.04
  Q 208.57 111.17 208.78 111.07
  L 209.10 110.92
  Q 209.20 110.87 209.29 110.93
  Q 209.41 111.02 209.37 111.22
  Z"
/>
<path fill="#ffd800" d="
  M 109.44 164.47
  Q 104.93 166.58 103.18 168.43
  Q 98.96 172.87 93.69 175.58
  Q 93.64 150.75 93.45 127.26
  Q 93.41 121.89 98.23 119.44
  Q 102.08 117.49 105.72 119.61
  Q 109.57 121.86 109.57 126.53
  Q 109.53 145.48 109.44 164.47
  Z"
/>
<path fill="#ffd800" d="
  M 308.89 190.99
  L 293.21 180.89
  Q 293.15 153.64 293.24 126.00
  C 293.28 116.14 308.96 115.92 308.96 126.52
  Q 308.95 158.09 308.89 190.99
  Z"
/>
<path fill="#ffd800" d="
  M 203.77 192.70
  Q 202.82 193.88 200.38 191.75
  C 198.89 190.46 198.65 188.48 198.50 186.65
  Q 197.94 179.98 197.54 172.66
  Q 196.93 161.52 193.20 132.74
  C 192.96 130.89 192.00 128.83 189.86 128.70
  Q 185.72 128.43 185.20 132.49
  Q 184.04 141.60 182.03 152.97
  Q 181.07 158.43 180.46 164.06
  A 0.82 0.81 -86.9 0 1 179.65 164.79
  L 148.59 165.06
  L 148.65 158.73
  A 0.93 0.93 0.0 0 1 149.58 157.81
  L 176.03 157.85
  Q 176.53 157.85 176.58 157.36
  Q 177.98 144.34 180.74 127.82
  C 181.71 122.00 189.11 119.39 193.77 122.53
  Q 197.88 125.29 198.10 130.20
  Q 198.15 131.46 198.28 132.69
  Q 201.42 162.38 203.77 192.70
  Z"
/>
<path fill="#ffd800" d="
  M 254.25 165.51
  Q 242.84 164.53 231.78 165.08
  A 1.00 0.99 -5.7 0 1 230.74 164.23
  Q 229.78 157.63 229.13 151.24
  C 228.44 144.49 226.79 138.36 225.81 131.87
  C 225.43 129.39 223.40 128.29 221.20 129.42
  C 219.35 130.37 219.17 132.88 218.93 134.69
  Q 217.46 146.00 216.10 157.15
  C 215.10 165.39 213.03 177.37 212.30 187.33
  Q 211.91 192.51 206.98 193.71
  Q 207.79 188.48 208.00 185.50
  Q 209.14 169.72 210.49 159.63
  Q 212.77 142.70 213.93 131.60
  C 214.41 126.99 216.06 123.44 220.45 121.89
  Q 223.31 120.88 226.30 122.97
  Q 229.49 125.20 230.10 128.55
  Q 232.74 143.06 234.57 156.98
  A 0.95 0.94 86.4 0 0 235.49 157.80
  L 253.52 157.86
  A 0.75 0.74 0.8 0 1 254.26 158.61
  L 254.25 165.51
  Z"
/>
<path fill="#ffb500" d="
  M 203.77 192.70
  Q 204.60 196.84 205.04 201.62
  Q 205.06 201.87 205.25 202.05
  Q 205.37 202.17 205.53 202.13
  Q 205.83 202.07 205.88 201.76
  L 206.98 193.71
  Q 211.91 192.51 212.30 187.33
  C 213.03 177.37 215.10 165.39 216.10 157.15
  Q 217.46 146.00 218.93 134.69
  C 219.17 132.88 219.35 130.37 221.20 129.42
  C 223.40 128.29 225.43 129.39 225.81 131.87
  C 226.79 138.36 228.44 144.49 229.13 151.24
  Q 229.78 157.63 230.74 164.23
  A 1.00 0.99 -5.7 0 0 231.78 165.08
  Q 242.84 164.53 254.25 165.51
  L 254.24 169.40
  A 0.92 0.92 0.0 0 1 253.33 170.32
  L 226.94 170.35
  Q 226.41 170.35 226.31 169.83
  Q 225.76 166.94 225.57 164.26
  Q 224.88 154.71 223.54 146.20
  Q 223.38 145.21 223.00 144.31
  Q 222.50 143.12 222.35 144.40
  Q 219.63 168.44 216.70 192.24
  Q 215.77 199.82 214.17 209.55
  C 213.16 215.72 212.95 222.21 211.44 228.28
  C 210.54 231.90 207.65 234.65 203.68 234.35
  Q 196.82 233.84 196.12 226.58
  C 193.55 199.73 192.41 171.71 189.77 144.82
  Q 189.48 141.81 188.76 144.74
  Q 186.03 155.84 184.66 169.53
  A 0.89 0.88 -87.1 0 1 183.78 170.33
  L 149.49 170.35
  Q 148.96 170.35 148.82 169.84
  Q 148.25 167.71 148.59 165.06
  L 179.65 164.79
  A 0.82 0.81 -86.9 0 0 180.46 164.06
  Q 181.07 158.43 182.03 152.97
  Q 184.04 141.60 185.20 132.49
  Q 185.72 128.43 189.86 128.70
  C 192.00 128.83 192.96 130.89 193.20 132.74
  Q 196.93 161.52 197.54 172.66
  Q 197.94 179.98 198.50 186.65
  C 198.65 188.48 198.89 190.46 200.38 191.75
  Q 202.82 193.88 203.77 192.70
  Z"
/>
<rect fill="#ffb500" x="68.15" y="144.83" width="14.54" height="34.82" rx="6.97"/>
<path fill="#ffd800" d="
  M 334.65 165.56
  Q 333.45 165.82 332.20 164.36
  Q 331.02 162.97 330.40 162.50
  Q 325.53 158.79 320.07 156.03
  Q 319.95 153.01 320.08 151.22
  C 320.62 143.99 331.40 142.61 334.01 148.95
  Q 334.62 150.45 334.65 154.16
  Q 334.68 159.78 334.65 165.56
  Z"
/>
<path fill="#ffb500" d="
  M 334.65 165.56
  Q 334.70 169.02 334.64 172.75
  C 334.47 181.99 320.44 182.17 320.22 172.98
  Q 320.02 164.82 320.07 156.03
  Q 325.53 158.79 330.40 162.50
  Q 331.02 162.97 332.20 164.36
  Q 333.45 165.82 334.65 165.56
  Z"
/>
<path fill="#ffb500" d="
  M 137.01 162.85
  Q 136.93 201.78 137.00 216.75
  Q 137.02 221.99 132.77 224.24
  C 127.44 227.07 120.84 223.46 120.85 217.26
  Q 120.85 195.71 120.85 175.21
  L 137.01 162.85
  Z"
/>
<path fill="#ffb500" d="
  M 281.98 173.66
  Q 281.97 195.08 281.84 217.00
  Q 281.80 223.83 275.28 225.11
  C 270.52 226.05 265.75 222.57 265.74 217.50
  Q 265.69 190.59 265.69 162.56
  Q 274.21 167.48 281.98 173.66
  Z"
/>
<path fill="#ffb500" d="
  M 109.44 164.47
  Q 109.54 186.86 109.38 200.13
  C 109.29 206.67 102.28 209.45 97.05 205.91
  C 93.03 203.19 93.60 199.84 93.58 195.65
  Q 93.52 185.09 93.69 175.58
  Q 98.96 172.87 103.18 168.43
  Q 104.93 166.58 109.44 164.47
  Z"
/>
<path fill="#ffb500" d="
  M 308.89 190.99
  Q 308.98 195.03 308.86 200.38
  C 308.70 206.88 300.96 209.35 296.14 205.81
  Q 292.99 203.49 293.04 199.49
  Q 293.14 190.39 293.21 180.89
  L 308.89 190.99
  Z"
/>
<path fill="#000000" d="
  M 181.45 283.80
  Q 181.33 283.90 181.21 283.79
  Q 175.76 278.32 170.04 279.74
  C 163.18 281.45 159.37 288.28 161.59 295.10
  Q 163.32 300.42 169.37 302.57
  C 173.53 304.06 178.25 301.97 180.99 298.88
  A 0.69 0.68 -48.9 0 1 181.95 298.81
  L 188.55 304.41
  A 0.63 0.62 -48.4 0 1 188.60 305.31
  Q 184.35 309.83 178.64 311.88
  C 172.18 314.20 166.33 312.78 160.56 309.48
  Q 158.14 308.09 156.42 305.96
  C 149.45 297.36 148.84 285.47 156.40 276.57
  Q 158.18 274.47 160.56 273.05
  Q 175.29 264.22 188.72 277.22
  Q 188.82 277.31 188.72 277.40
  Q 185.50 280.62 181.45 283.80
  Z"
/>
<path fill="#000000" d="
  M 88.87 280.34
  L 88.96 311.89
  A 0.44 0.44 0.0 0 1 88.52 312.33
  L 79.28 312.34
  A 0.44 0.44 0.0 0 1 78.84 311.90
  L 78.86 280.36
  A 0.44 0.44 0.0 0 0 78.42 279.92
  L 66.82 279.95
  A 0.44 0.44 0.0 0 1 66.38 279.51
  L 66.35 270.79
  A 0.44 0.44 0.0 0 1 66.79 270.35
  L 100.92 270.32
  A 0.44 0.44 0.0 0 1 101.36 270.76
  L 101.34 279.47
  A 0.44 0.44 0.0 0 1 100.90 279.91
  L 89.31 279.90
  A 0.44 0.44 0.0 0 0 88.87 280.34
  Z"
/>
<path fill="#000000" d="
  M 120.60 302.62
  L 143.47 302.50
  A 0.46 0.46 0.0 0 1 143.93 302.96
  L 143.98 311.77
  A 0.46 0.46 0.0 0 1 143.52 312.23
  L 110.35 312.38
  A 0.46 0.46 0.0 0 1 109.89 311.92
  L 109.71 270.82
  A 0.46 0.46 0.0 0 1 110.17 270.36
  L 143.33 270.21
  A 0.46 0.46 0.0 0 1 143.79 270.67
  L 143.83 279.48
  A 0.46 0.46 0.0 0 1 143.37 279.94
  L 120.49 280.03
  A 0.46 0.46 0.0 0 0 120.03 280.49
  L 120.07 285.98
  A 0.46 0.46 0.0 0 0 120.53 286.44
  L 141.30 286.36
  A 0.46 0.46 0.0 0 1 141.76 286.82
  L 141.79 295.64
  A 0.46 0.46 0.0 0 1 141.33 296.10
  L 120.57 296.20
  A 0.46 0.46 0.0 0 0 120.11 296.66
  L 120.14 302.16
  A 0.46 0.46 0.0 0 0 120.60 302.62
  Z"
/>
<path fill="#000000" d="
  M 225.11 295.92
  L 208.41 295.93
  A 0.38 0.38 0.0 0 0 208.03 296.31
  L 208.01 311.98
  A 0.38 0.38 0.0 0 1 207.63 312.36
  L 197.98 312.38
  A 0.38 0.38 0.0 0 1 197.60 312.00
  L 197.59 270.73
  A 0.38 0.38 0.0 0 1 197.97 270.35
  L 207.63 270.33
  A 0.38 0.38 0.0 0 1 208.01 270.71
  L 208.05 285.59
  A 0.38 0.38 0.0 0 0 208.43 285.97
  L 225.07 285.96
  A 0.38 0.38 0.0 0 0 225.45 285.58
  L 225.46 270.70
  A 0.38 0.38 0.0 0 1 225.84 270.32
  L 235.51 270.32
  A 0.38 0.38 0.0 0 1 235.89 270.70
  L 235.94 311.98
  A 0.38 0.38 0.0 0 1 235.56 312.36
  L 225.91 312.35
  A 0.38 0.38 0.0 0 1 225.53 311.97
  L 225.49 296.30
  A 0.38 0.38 0.0 0 0 225.11 295.92
  Z"
/>
<path fill="#000000" d="
  M 255.00 296.36
  L 254.98 311.90
  A 0.45 0.45 0.0 0 1 254.53 312.35
  L 245.28 312.35
  A 0.45 0.45 0.0 0 1 244.83 311.90
  L 244.81 270.79
  A 0.45 0.45 0.0 0 1 245.26 270.34
  L 276.15 270.34
  A 0.45 0.45 0.0 0 1 276.60 270.79
  L 276.60 279.55
  A 0.45 0.45 0.0 0 1 276.15 280.00
  L 255.53 279.98
  A 0.45 0.45 0.0 0 0 255.08 280.43
  L 255.13 285.87
  A 0.45 0.45 0.0 0 0 255.58 286.32
  L 274.16 286.33
  A 0.45 0.45 0.0 0 1 274.61 286.78
  L 274.60 295.49
  A 0.45 0.45 0.0 0 1 274.15 295.94
  L 255.45 295.91
  A 0.45 0.45 0.0 0 0 255.00 296.36
  Z"
/>
<rect fill="#000000" x="284.56" y="270.32" width="9.60" height="42.02" rx="0.36"/>
<path fill="#000000" d="
  M 313.61 279.90
  L 302.58 279.87
  A 0.45 0.45 0.0 0 1 302.13 279.42
  L 302.14 270.79
  A 0.45 0.45 0.0 0 1 302.59 270.34
  L 336.49 270.36
  A 0.45 0.45 0.0 0 1 336.94 270.81
  L 336.98 279.45
  A 0.45 0.45 0.0 0 1 336.53 279.90
  L 324.80 279.92
  A 0.45 0.45 0.0 0 0 324.35 280.37
  L 324.36 311.91
  A 0.45 0.45 0.0 0 1 323.91 312.36
  L 314.53 312.32
  A 0.45 0.45 0.0 0 1 314.08 311.87
  L 314.06 280.35
  A 0.45 0.45 0.0 0 0 313.61 279.90
  Z"
/>
<path fill="#000000" d="
  M 144.33 339.13
  Q 146.84 340.47 149.20 338.39
  A 0.72 0.71 51.3 0 1 150.24 338.51
  L 151.30 339.96
  Q 151.74 340.55 151.11 340.94
  C 148.68 342.44 143.54 343.31 141.39 340.66
  Q 137.83 336.27 140.44 331.37
  C 142.48 327.52 147.83 327.86 150.96 329.66
  Q 151.54 329.99 151.16 330.54
  L 150.06 332.17
  A 0.61 0.61 0.0 0 1 149.17 332.31
  C 143.69 328.02 139.29 336.44 144.33 339.13
  Z"
/>
<path fill="#000000" d="
  M 257.87 334.23
  Q 256.67 338.17 254.88 341.37
  A 1.52 1.52 0.0 0 1 252.21 341.34
  Q 250.38 337.87 249.34 334.42
  Q 248.85 332.77 248.82 334.49
  L 248.72 341.52
  Q 248.72 342.12 248.12 342.10
  L 246.26 342.06
  Q 245.69 342.05 245.69 341.47
  L 245.64 329.23
  Q 245.64 328.36 246.51 328.37
  L 248.90 328.40
  A 0.77 0.76 78.2 0 1 249.60 328.87
  L 253.33 337.60
  A 0.26 0.26 0.0 0 0 253.81 337.60
  L 257.55 328.94
  Q 257.78 328.41 258.35 328.41
  L 260.70 328.40
  Q 261.54 328.39 261.53 329.22
  L 261.45 341.20
  A 0.89 0.89 0.0 0 1 260.57 342.09
  L 259.01 342.12
  Q 258.37 342.13 258.38 341.49
  Q 258.44 337.67 258.26 334.28
  Q 258.20 333.15 257.87 334.23
  Z"
/>
<path fill="#000000" d="
  M 121.19 339.36
  Q 119.26 339.47 117.48 339.40
  A 0.95 0.94 6.3 0 0 116.51 340.17
  Q 116.00 342.69 113.15 342.11
  Q 112.57 342.00 112.73 341.42
  C 113.91 337.12 116.12 333.37 117.47 329.09
  Q 117.67 328.46 118.33 328.45
  L 120.68 328.40
  Q 121.31 328.39 121.58 328.95
  Q 124.51 335.05 125.92 341.03
  Q 126.17 342.07 125.10 342.08
  L 124.46 342.09
  Q 123.23 342.10 122.89 340.92
  C 122.65 340.09 122.20 339.31 121.19 339.36
  Z
  M 117.81 336.41
  A 0.38 0.38 0.0 0 0 118.16 336.92
  L 120.89 336.98
  A 0.38 0.38 0.0 0 0 121.26 336.48
  L 119.97 332.46
  A 0.38 0.38 0.0 0 0 119.25 332.44
  L 117.81 336.41
  Z"
/>
<path fill="#000000" d="
  M 167.84 339.74
  Q 167.29 340.37 167.01 341.30
  Q 166.79 342.06 165.99 342.08
  L 164.37 342.13
  Q 163.61 342.15 163.85 341.43
  Q 165.86 335.28 168.89 328.87
  Q 169.10 328.43 169.59 328.44
  L 172.43 328.48
  Q 173.03 328.48 173.20 329.06
  Q 173.80 331.16 174.44 333.29
  C 175.30 336.10 176.76 338.60 177.46 341.44
  A 0.50 0.50 0.0 0 1 176.97 342.06
  L 175.29 342.05
  A 0.97 0.96 80.7 0 1 174.38 341.39
  L 173.91 339.99
  Q 173.72 339.42 173.12 339.41
  L 168.65 339.38
  Q 168.16 339.38 167.84 339.74
  Z
  M 169.04 336.28
  A 0.58 0.58 0.0 0 0 169.61 337.04
  L 172.17 336.94
  A 0.58 0.58 0.0 0 0 172.68 336.14
  L 171.27 332.76
  A 0.58 0.58 0.0 0 0 170.19 332.80
  L 169.04 336.28
  Z"
/>
<path fill="#000000" d="
  M 192.35 328.98
  A 0.52 0.52 0.0 0 1 192.87 328.46
  L 199.25 328.45
  A 6.62 6.37 -0.1 0 1 205.88 334.81
  L 205.88 335.73
  A 6.62 6.37 -0.1 0 1 199.27 342.11
  L 192.89 342.12
  A 0.52 0.52 0.0 0 1 192.37 341.60
  L 192.35 328.98
  Z
  M 195.58 331.91
  L 195.58 339.03
  A 0.54 0.54 0.0 0 0 196.12 339.57
  L 198.43 339.57
  A 4.01 3.85 -0.0 0 0 202.44 335.72
  L 202.44 335.22
  A 4.01 3.85 0.0 0 0 198.43 331.37
  L 196.12 331.37
  A 0.54 0.54 0.0 0 0 195.58 331.91
  Z"
/>
<path fill="#000000" d="
  M 224.50 331.77
  L 224.53 333.28
  A 0.52 0.52 0.0 0 0 225.05 333.79
  L 230.28 333.77
  A 0.52 0.52 0.0 0 1 230.80 334.29
  L 230.80 336.37
  A 0.52 0.52 0.0 0 1 230.28 336.89
  L 225.03 336.87
  A 0.52 0.52 0.0 0 0 224.51 337.39
  L 224.52 338.90
  A 0.52 0.52 0.0 0 0 225.04 339.42
  L 231.00 339.39
  A 0.52 0.52 0.0 0 1 231.52 339.91
  L 231.53 341.60
  A 0.52 0.52 0.0 0 1 231.01 342.12
  L 221.60 342.10
  A 0.52 0.52 0.0 0 1 221.08 341.58
  L 221.08 329.08
  A 0.52 0.52 0.0 0 1 221.60 328.56
  L 231.00 328.53
  A 0.52 0.52 0.0 0 1 231.52 329.05
  L 231.52 330.74
  A 0.52 0.52 0.0 0 1 231.00 331.26
  L 225.02 331.24
  A 0.52 0.52 0.0 0 0 224.50 331.77
  Z"
/>
<path fill="#000000" d="
  M 278.74 333.68
  A 0.54 0.53 45.5 0 0 279.69 333.69
  L 282.09 329.22
  Q 282.49 328.49 283.31 328.51
  L 285.45 328.58
  Q 286.10 328.60 285.78 329.17
  Q 284.13 332.10 282.13 334.72
  C 280.71 336.58 280.67 338.77 280.87 340.99
  A 1.06 1.06 0.0 0 1 279.80 342.14
  L 278.69 342.14
  Q 277.31 342.13 277.43 340.75
  C 277.62 338.66 277.68 336.88 276.45 335.02
  Q 274.46 332.01 272.80 329.19
  A 0.50 0.49 74.6 0 1 273.22 328.44
  L 275.19 328.43
  A 1.43 1.42 76.1 0 1 276.45 329.20
  L 278.74 333.68
  Z"
/>
<rect fill="#000000" x="66.42" y="335.14" width="40.66" height="3.30" rx="1.62"/>
<rect fill="#000000" x="290.84" y="335.14" width="46.58" height="3.30" rx="1.62"/>
</svg>
